<?xml version="1.0"?>
<svg xmlns="http://www.w3.org/2000/svg" xmlns:xlink="http://www.w3.org/1999/xlink" xmlns:svgjs="http://svgjs.com/svgjs" version="1.1" width="512" height="512" x="0" y="0" viewBox="0 0 152 152" style="enable-background:new 0 0 512 512" xml:space="preserve" class=""><g><g xmlns="http://www.w3.org/2000/svg" id="Layer_2" data-name="Layer 2"><g id="_10.user_unlock" data-name="10.user_unlock"><path d="m76 0a76 76 0 0 0 -76 76 76 76 0 0 0 76 76 76 76 0 0 0 76-76 76 76 0 0 0 -76-76zm-11 44.35a13.48 13.48 0 1 1 -13.52 13.48 13.48 13.48 0 0 1 13.52-13.48zm7.48 40v18.8a7.72 7.72 0 0 0 1.31 4.32h-29.79a6 6 0 0 1 -6-6 24.89 24.89 0 0 1 24.89-24.86h4.16a25.07 25.07 0 0 1 8.57 1.51 7.79 7.79 0 0 0 -3.17 6.27zm41.52 18.84a4.46 4.46 0 0 1 -4.46 4.46h-29.31a4.46 4.46 0 0 1 -4.46-4.46v-18.8a4.46 4.46 0 0 1 4.46-4.46h1.84v-7.43a13 13 0 0 1 12.59-13.1 12.81 12.81 0 0 1 13 12.81v2.5a1.28 1.28 0 0 1 -1.24 1.29h-3.77a1.29 1.29 0 0 1 -1.29-1.29v-2.5a6.48 6.48 0 0 0 -6.8-6.47 6.6 6.6 0 0 0 -6.15 6.66v7.53h21.13a4.46 4.46 0 0 1 4.46 4.46z" fill="#f9f9f9" data-original="#000000" class=""/></g></g></g></svg>
